<svg width="48" height="48" viewBox="0 0 48 48" fill="none" xmlns="http://www.w3.org/2000/svg">
<rect width="48" height="48" rx="24" fill="#D8E2FD"/>
<path d="M21.455 30.086L18.212 31.48C17.477 31.796 17 32.519 17 33.319V35H31V33.319C31 32.519 30.523 31.796 29.788 31.481L26.537 30.093" stroke="#2D66F5" stroke-width="2.4" stroke-miterlimit="10"/>
<path d="M24 17C25.1046 17 26 16.1046 26 15C26 13.8954 25.1046 13 24 13C22.8954 13 22 13.8954 22 15C22 16.1046 22.8954 17 24 17Z" stroke="#2D66F5" stroke-width="2.4" stroke-miterlimit="10" stroke-linecap="square"/>
<path d="M33 22C34.1046 22 35 21.1046 35 20C35 18.8954 34.1046 18 33 18C31.8954 18 31 18.8954 31 20C31 21.1046 31.8954 22 33 22Z" stroke="#2D66F5" stroke-width="2.4" stroke-miterlimit="10" stroke-linecap="square"/>
<path d="M15 22C16.1046 22 17 21.1046 17 20C17 18.8954 16.1046 18 15 18C13.8954 18 13 18.8954 13 20C13 21.1046 13.8954 22 15 22Z" stroke="#2D66F5" stroke-width="2.4" stroke-miterlimit="10" stroke-linecap="square"/>
<path d="M24 31C21.791 31 20 29.209 20 27V26C20 23.791 21.791 22 24 22C26.209 22 28 23.791 28 26V27C28 29.209 26.209 31 24 31Z" stroke="#2D66F5" stroke-width="2.4" stroke-miterlimit="10" stroke-linecap="square"/>
</svg>
