<svg width="24" height="24" viewBox="0 0 24 24" fill="none" xmlns="http://www.w3.org/2000/svg">
<path d="M17.1429 10.2857L13.7143 10.2857V6.85714C13.7143 6.384 13.3303 6 12.8571 6L11.1429 6C10.6697 6 10.2857 6.384 10.2857 6.85714V10.2857H6.85714C6.384 10.2857 6 10.6697 6 11.1429L6 12.8571C6 13.3303 6.384 13.7143 6.85714 13.7143H10.2857L10.2857 17.1429C10.2857 17.616 10.6697 18 11.1429 18H12.8571C13.3303 18 13.7143 17.616 13.7143 17.1429L13.7143 13.7143L17.1429 13.7143C17.616 13.7143 18 13.3303 18 12.8571V11.1429C18 10.6697 17.616 10.2857 17.1429 10.2857Z" fill="#171A1F"/>
</svg>
