<svg width="48" height="48" viewBox="0 0 48 48" fill="none" xmlns="http://www.w3.org/2000/svg">
<rect width="48" height="48" rx="24" fill="#D8E2FD"/>
<path d="M24 16L24 33" stroke="#2D66F5" stroke-width="2.4" stroke-miterlimit="10"/>
<path d="M29.5 14C26.5 14 24 15.3 24 17C24 15.3 21.5 14 18.5 14C15.5 14 13 15.3 13 17L13 34C13 32.3 15.5 31 18.5 31C21.5 31 24 32.3 24 34C24 32.3 26.5 31 29.5 31C32.5 31 35 32.3 35 34V17C35 15.3 32.5 14 29.5 14Z" stroke="#2D66F5" stroke-width="2.4" stroke-miterlimit="10" stroke-linecap="square"/>
</svg>
