<svg width="24" height="24" viewBox="0 0 24 24" fill="none" xmlns="http://www.w3.org/2000/svg">
<path d="M12 17.1427L12 2.57129" stroke="#565E6C" stroke-width="2.05714" stroke-miterlimit="10"/>
<path d="M15.4284 13.7139L11.9999 17.1424L8.57129 13.7139" stroke="#565E6C" stroke-width="2.05714" stroke-miterlimit="10" stroke-linecap="square"/>
<path d="M16.2859 10.2861H18.8573C19.3119 10.2861 19.748 10.4667 20.0695 10.7882C20.391 11.1097 20.5716 11.5458 20.5716 12.0004L20.5716 18.8576C20.5716 19.3122 20.391 19.7483 20.0695 20.0697C19.748 20.3912 19.3119 20.5718 18.8573 20.5718L5.143 20.5718C4.68834 20.5718 4.2523 20.3912 3.93081 20.0697C3.60932 19.7483 3.42871 19.3122 3.42871 18.8576L3.42871 12.0004C3.42871 11.5458 3.60932 11.1097 3.93081 10.7882C4.2523 10.4667 4.68834 10.2861 5.143 10.2861H7.71442" stroke="#565E6C" stroke-width="2.05714" stroke-miterlimit="10" stroke-linecap="square"/>
</svg>
