<svg width="24" height="25" viewBox="0 0 24 25" fill="none" xmlns="http://www.w3.org/2000/svg">
<path d="M21.907 17.1632L20.6967 13.5315C20.5318 13.0354 20.2189 12.6017 19.8001 12.2887L17.5381 10.5932C17.8175 9.80892 17.9734 8.98597 18.0001 8.15381C18.0001 5.96638 14.1867 2.15381 12.0001 2.15381C9.81356 2.15381 6.00013 5.96638 6.00013 8.15381C6.02689 8.98597 6.18275 9.80892 6.46213 10.5932L4.20013 12.2887C3.78113 12.6018 3.46821 13.0359 3.30356 13.5324L2.09327 17.1641C1.94075 17.6168 1.91813 18.1033 2.02796 18.5682C2.1378 19.0332 2.3757 19.458 2.7147 19.7947L3.67984 20.7598C3.84055 20.9206 4.05853 21.0109 4.28584 21.011H5.14299L5.14299 15.011C5.14299 14.329 5.4139 13.6749 5.89614 13.1927C6.37838 12.7104 7.03243 12.4395 7.71442 12.4395H9.2307C8.56534 11.6142 8.10005 10.6461 7.87127 9.61095C7.78984 9.21673 7.84973 8.80643 8.04046 8.45193C8.23118 8.09744 8.54057 7.82137 8.91442 7.67209L11.3633 6.69667C11.7721 6.53308 12.2282 6.53308 12.637 6.69667L15.0858 7.67209C15.4597 7.82137 15.7691 8.09744 15.9598 8.45193C16.1505 8.80643 16.2104 9.21673 16.129 9.61095C15.9002 10.6461 15.4349 11.6142 14.7696 12.4395H16.2858C16.9678 12.4395 17.6219 12.7104 18.1041 13.1927C18.5864 13.6749 18.8573 14.329 18.8573 15.011V21.011H19.7144C19.9417 21.0109 20.1597 20.9206 20.3204 20.7598L21.2856 19.7947C21.6245 19.4578 21.8624 19.0328 21.9723 18.5677C22.0821 18.1027 22.0595 17.6161 21.907 17.1632Z" fill="#565E6C"/>
<path d="M16.2855 14.1538L7.71408 14.1538C7.48675 14.1538 7.26873 14.2441 7.10799 14.4049C6.94724 14.5656 6.85693 14.7836 6.85693 15.011L6.85693 21.8681C6.85693 22.0954 6.94724 22.3134 7.10799 22.4742C7.26873 22.6349 7.48675 22.7252 7.71408 22.7252H16.2855C16.5128 22.7252 16.7309 22.6349 16.8916 22.4742C17.0523 22.3134 17.1426 22.0954 17.1426 21.8681V15.011C17.1426 14.7836 17.0523 14.5656 16.8916 14.4049C16.7309 14.2441 16.5128 14.1538 16.2855 14.1538ZM11.9998 19.811C11.7455 19.811 11.4969 19.7355 11.2855 19.5943C11.0741 19.453 10.9093 19.2522 10.8119 19.0173C10.7146 18.7823 10.6892 18.5238 10.7388 18.2744C10.7884 18.025 10.9108 17.7959 11.0907 17.6161C11.2705 17.4363 11.4996 17.3138 11.749 17.2642C11.9984 17.2146 12.2569 17.2401 12.4918 17.3374C12.7267 17.4347 12.9275 17.5995 13.0688 17.8109C13.2101 18.0224 13.2855 18.2709 13.2855 18.5252C13.2855 18.8662 13.15 19.1933 12.9089 19.4344C12.6678 19.6755 12.3408 19.811 11.9998 19.811Z" fill="#565E6C"/>
</svg>
