<svg width="24" height="24" viewBox="0 0 24 24" fill="none" xmlns="http://www.w3.org/2000/svg">
<path d="M12.0004 9.42847V12.857L8.40039 15.5142" stroke="#5E5D5A" stroke-width="2.05714" stroke-miterlimit="10"/>
<path d="M12 12.8572L15.6 15.5143" stroke="#5E5D5A" stroke-width="2.05714" stroke-miterlimit="10"/>
<path d="M12.0008 9.42868C13.8944 9.42868 15.4294 7.89365 15.4294 6.0001C15.4294 4.10656 13.8944 2.57153 12.0008 2.57153C10.1073 2.57153 8.57227 4.10656 8.57227 6.0001C8.57227 7.89365 10.1073 9.42868 12.0008 9.42868Z" stroke="#5E5D5A" stroke-width="2.05714" stroke-miterlimit="10" stroke-linecap="square"/>
<path d="M6.00084 21.4287C7.89438 21.4287 9.42941 19.8937 9.42941 18.0001C9.42941 16.1066 7.89438 14.5715 6.00084 14.5715C4.10729 14.5715 2.57227 16.1066 2.57227 18.0001C2.57227 19.8937 4.10729 21.4287 6.00084 21.4287Z" stroke="#5E5D5A" stroke-width="2.05714" stroke-miterlimit="10" stroke-linecap="square"/>
<path d="M18.0008 21.4287C19.8944 21.4287 21.4294 19.8937 21.4294 18.0001C21.4294 16.1066 19.8944 14.5715 18.0008 14.5715C16.1073 14.5715 14.5723 16.1066 14.5723 18.0001C14.5723 19.8937 16.1073 21.4287 18.0008 21.4287Z" stroke="#5E5D5A" stroke-width="2.05714" stroke-miterlimit="10" stroke-linecap="square"/>
</svg>
