<svg width="22" height="23" viewBox="0 0 22 23" fill="none" xmlns="http://www.w3.org/2000/svg">
<path d="M1.57129 14.582L1.57129 18.5106C1.57129 18.719 1.65407 18.9188 1.80142 19.0662C1.94877 19.2135 2.14862 19.2963 2.357 19.2963H5.49986C5.70825 19.2963 5.90809 19.2135 6.05544 19.0662C6.20279 18.9188 6.28557 18.719 6.28557 18.5106L6.28557 14.582L1.57129 14.582Z" fill="#28AA00"/>
<path d="M6.28557 13.0106L6.28557 4.36775C6.28557 4.15936 6.20279 3.95951 6.05544 3.81216C5.90809 3.66481 5.70825 3.58203 5.49986 3.58203L2.357 3.58203C2.14862 3.58203 1.94877 3.66481 1.80142 3.81216C1.65407 3.95951 1.57129 4.15936 1.57129 4.36775L1.57129 13.0106L6.28557 13.0106Z" fill="#28AA00"/>
<path d="M7.85742 14.582L7.85742 18.5106C7.85742 18.719 7.9402 18.9188 8.08755 19.0662C8.2349 19.2135 8.43475 19.2963 8.64314 19.2963H11.786C11.9944 19.2963 12.1942 19.2135 12.3416 19.0662C12.4889 18.9188 12.5717 18.719 12.5717 18.5106V14.582L7.85742 14.582Z" fill="#28AA00"/>
<path d="M12.5717 13.0106L12.5717 4.36775C12.5717 4.15936 12.4889 3.95951 12.3416 3.81216C12.1942 3.66481 11.9944 3.58203 11.786 3.58203L8.64314 3.58203C8.43475 3.58203 8.2349 3.66481 8.08755 3.81216C7.9402 3.95951 7.85742 4.15936 7.85742 4.36775L7.85742 13.0106L12.5717 13.0106Z" fill="#28AA00"/>
<path d="M14.528 13.3507L19.1087 12.2381L17.0698 3.83959C17.0207 3.63719 16.8932 3.46258 16.7153 3.35414C16.5375 3.2457 16.3239 3.21231 16.1214 3.26131L13.0666 4.00302C12.8651 4.0532 12.6916 4.18113 12.5841 4.35884C12.4766 4.53655 12.4439 4.74959 12.493 4.95138L14.528 13.3507Z" fill="#28AA00"/>
<path d="M20.4053 17.5834L19.479 13.7656L14.8975 14.8774L15.8246 18.6952C15.8489 18.7955 15.8928 18.89 15.9537 18.9734C16.0145 19.0567 16.0912 19.1273 16.1794 19.181C16.2675 19.2347 16.3654 19.2705 16.4674 19.2864C16.5693 19.3022 16.6735 19.2979 16.7737 19.2735L19.8278 18.5326C20.0302 18.4832 20.2048 18.3556 20.3131 18.1776C20.4214 17.9996 20.4546 17.7859 20.4053 17.5834Z" fill="#28AA00"/>
</svg>
