<svg width="22" height="22" viewBox="0 0 22 22" fill="none" xmlns="http://www.w3.org/2000/svg">
<path d="M18.0711 3.92871L16.4997 3.92871V7.85728L5.49972 7.85728L5.49972 3.92871L3.92829 3.92871C3.49379 3.92871 3.14258 4.27993 3.14258 4.71443L3.14258 19.643C3.14258 20.0775 3.49379 20.4287 3.92829 20.4287L18.0711 20.4287C18.5056 20.4287 18.8569 20.0775 18.8569 19.643L18.8569 4.71443C18.8569 4.27993 18.5056 3.92871 18.0711 3.92871ZM15.714 16.5001L6.28544 16.5001L6.28544 14.9287L15.714 14.9287V16.5001ZM15.714 12.5716L6.28544 12.5716V11.0001L15.714 11.0001V12.5716Z" fill="#8570FF"/>
<path d="M12.5713 3.14272C12.5713 2.2745 11.8681 1.57129 10.9999 1.57129C10.1316 1.57129 9.42843 2.2745 9.42843 3.14272L7.07129 3.14272L7.07129 6.28557L14.9284 6.28557V3.14272L12.5713 3.14272Z" fill="#8570FF"/>
</svg>
