<svg width="24" height="24" viewBox="0 0 24 24" fill="none" xmlns="http://www.w3.org/2000/svg">
<path d="M14.4004 3L14.4004 7.8L19.2004 7.8" stroke="#5E5D5A" stroke-width="1.44" stroke-miterlimit="10"/>
<path d="M19.1998 10.2V7.8L14.3998 3L4.7998 3L4.7998 10.2" stroke="#5E5D5A" stroke-width="1.44" stroke-miterlimit="10" stroke-linecap="square"/>
<path d="M4.7998 18.6001L4.7998 21.0001L19.1998 21.0001V18.6001" stroke="#5E5D5A" stroke-width="1.44" stroke-miterlimit="10" stroke-linecap="square"/>
<path d="M10.2858 13.863C10.2858 14.2458 10.173 14.5416 9.94743 14.7504C9.72183 14.9592 9.40083 15.063 8.98503 15.063H8.72463V16.2H7.79883L7.79883 12.7734H8.98503C9.41763 12.7734 9.74283 12.8676 9.96003 13.0572C10.1772 13.2468 10.2858 13.5144 10.2858 13.863ZM8.72463 14.3088H8.89323C9.03243 14.3088 9.14283 14.2698 9.22503 14.1918C9.30723 14.1138 9.34803 14.0058 9.34803 13.8684C9.34803 13.6368 9.22023 13.5216 8.96343 13.5216H8.72463V14.3088Z" fill="#5E5D5A"/>
<path d="M13.7399 14.4138C13.7399 14.9856 13.5827 15.4266 13.2677 15.7356C12.9527 16.0446 12.5105 16.2 11.9399 16.2H10.8311V12.7734H12.0173C12.5675 12.7734 12.9923 12.9138 13.2911 13.1952C13.5899 13.4766 13.7399 13.8828 13.7399 14.4138ZM12.7793 14.4468C12.7793 14.133 12.7169 13.9002 12.5927 13.7484C12.4685 13.5966 12.2801 13.521 12.0269 13.521H11.7575V15.4404H11.9639C12.2453 15.4404 12.4511 15.3588 12.5825 15.1956C12.7139 15.0324 12.7793 14.7828 12.7793 14.4468Z" fill="#5E5D5A"/>
<path d="M15.2655 16.2H14.3535V12.7734H16.3785V13.5162H15.2655V14.1702H16.2921V14.913H15.2655V16.2Z" fill="#5E5D5A"/>
<path d="M21 10.2002L3 10.2002L3 18.6002L21 18.6002L21 10.2002Z" stroke="#5E5D5A" stroke-width="1.44" stroke-miterlimit="10" stroke-linecap="square"/>
</svg>
