<svg width="16" height="16" viewBox="0 0 16 16" fill="none" xmlns="http://www.w3.org/2000/svg">
<path d="M4.95515 10.2366L1.88144 13.3103C1.65801 13.5337 1.65801 13.8949 1.88144 14.1183C1.99287 14.2297 2.13915 14.2857 2.28544 14.2857C2.43172 14.2857 2.57801 14.2297 2.68944 14.1183L5.76315 11.0446L4.95515 10.2366Z" fill="#EFB034"/>
<path d="M14.6893 5.31027L10.6893 1.31027C10.4659 1.08684 10.1047 1.08684 9.8813 1.31027C9.65787 1.5337 9.65787 1.89484 9.8813 2.11827L10.4002 2.63713L4.10244 6.15199L3.26073 5.31027C3.0373 5.08684 2.67616 5.08684 2.45273 5.31027C2.2293 5.5337 2.2293 5.89484 2.45273 6.11827L9.8813 13.5468C9.99273 13.6583 10.139 13.7143 10.2853 13.7143C10.4316 13.7143 10.5779 13.6583 10.6893 13.5468C10.9127 13.3234 10.9127 12.9623 10.6893 12.7388L9.84759 11.8971L13.3624 5.59941L13.8813 6.11827C13.9927 6.2297 14.139 6.2857 14.2853 6.2857C14.4316 6.2857 14.5779 6.2297 14.6893 6.11827C14.9127 5.89484 14.9127 5.5337 14.6893 5.31027Z" fill="#EFB034"/>
</svg>
