<svg width="16" height="16" viewBox="0 0 16 16" fill="none" xmlns="http://www.w3.org/2000/svg">
<path d="M9.14258 4.57129L11.4283 4.57129" stroke="#DE3B40" stroke-width="1.37143" stroke-miterlimit="10" stroke-linecap="square"/>
<path d="M9.14258 6.85693L11.4283 6.85693" stroke="#DE3B40" stroke-width="1.37143" stroke-miterlimit="10" stroke-linecap="square"/>
<path d="M4.57129 9.14307L11.4284 9.14307" stroke="#DE3B40" stroke-width="1.37143" stroke-miterlimit="10" stroke-linecap="square"/>
<path d="M4.57129 11.4287L11.4284 11.4287" stroke="#DE3B40" stroke-width="1.37143" stroke-miterlimit="10" stroke-linecap="square"/>
<path d="M12.5718 14.2858L3.42899 14.2858C3.12589 14.2858 2.8352 14.1654 2.62087 13.951C2.40654 13.7367 2.28613 13.446 2.28613 13.1429L2.28613 2.85721C2.28613 2.55411 2.40654 2.26342 2.62087 2.04909C2.8352 1.83476 3.12589 1.71436 3.42899 1.71436L12.5718 1.71436C12.875 1.71436 13.1656 1.83476 13.38 2.04909C13.5943 2.26342 13.7147 2.55411 13.7147 2.85721L13.7147 13.1429C13.7147 13.446 13.5943 13.7367 13.38 13.951C13.1656 14.1654 12.875 14.2858 12.5718 14.2858Z" stroke="#DE3B40" stroke-width="1.37143" stroke-miterlimit="10" stroke-linecap="square"/>
<path d="M6.857 4.57129L4.57129 4.57129L4.57129 6.857L6.857 6.857L6.857 4.57129Z" stroke="#DE3B40" stroke-width="1.37143" stroke-miterlimit="10" stroke-linecap="square"/>
</svg>
