<svg width="24" height="24" viewBox="0 0 24 24" fill="none" xmlns="http://www.w3.org/2000/svg">
<path d="M13.7139 6.85742L17.1424 6.85742" stroke="#565E6C" stroke-width="2.05714" stroke-miterlimit="10" stroke-linecap="square"/>
<path d="M13.7139 10.2861H17.1424" stroke="#565E6C" stroke-width="2.05714" stroke-miterlimit="10" stroke-linecap="square"/>
<path d="M6.85742 13.7139L17.1431 13.7139" stroke="#565E6C" stroke-width="2.05714" stroke-miterlimit="10" stroke-linecap="square"/>
<path d="M6.85742 17.1426L17.1431 17.1426" stroke="#565E6C" stroke-width="2.05714" stroke-miterlimit="10" stroke-linecap="square"/>
<path d="M18.8573 21.4284L5.143 21.4284C4.68834 21.4284 4.2523 21.2478 3.93081 20.9263C3.60932 20.6048 3.42871 20.1688 3.42871 19.7141L3.42871 4.28557C3.42871 3.83092 3.60932 3.39488 3.93081 3.07339C4.2523 2.7519 4.68834 2.57129 5.143 2.57129L18.8573 2.57129C19.3119 2.57129 19.748 2.7519 20.0695 3.07339C20.391 3.39488 20.5716 3.83092 20.5716 4.28557L20.5716 19.7141C20.5716 20.1688 20.391 20.6048 20.0695 20.9263C19.748 21.2478 19.3119 21.4284 18.8573 21.4284Z" stroke="#565E6C" stroke-width="2.05714" stroke-miterlimit="10" stroke-linecap="square"/>
<path d="M10.286 6.85742L6.85742 6.85742L6.85742 10.286H10.286V6.85742Z" stroke="#565E6C" stroke-width="2.05714" stroke-miterlimit="10" stroke-linecap="square"/>
</svg>
