<svg width="18" height="19" viewBox="0 0 18 19" fill="none" xmlns="http://www.w3.org/2000/svg">
<path d="M16.2702 3.61752C16.2702 3.61752 16.2702 3.62455 16.2702 3.62807L12.178 17.1238C12.116 17.343 11.9885 17.5381 11.8126 17.6827C11.6366 17.8274 11.4206 17.9148 11.1936 17.9331C11.1612 17.936 11.1289 17.9374 11.0966 17.9374C10.8838 17.938 10.6753 17.8778 10.4956 17.7638C10.316 17.6498 10.1727 17.4868 10.0827 17.294L7.5718 11.9931C7.54701 11.9407 7.53904 11.8819 7.54898 11.8247C7.55893 11.7676 7.5863 11.7149 7.62734 11.6739L11.6534 7.64713C11.7545 7.54078 11.81 7.39917 11.8081 7.25249C11.8062 7.10581 11.7471 6.96567 11.6434 6.86195C11.5397 6.75822 11.3995 6.69912 11.2528 6.69724C11.1062 6.69536 10.9645 6.75086 10.8582 6.85189L6.82578 10.878C6.7848 10.919 6.73212 10.9464 6.67497 10.9563C6.61783 10.9663 6.559 10.9583 6.50656 10.9335L1.23312 8.43533C1.02601 8.34044 0.85172 8.18623 0.732311 7.99222C0.612902 7.79822 0.553749 7.57314 0.562343 7.34549C0.573796 7.11151 0.658502 6.88705 0.804486 6.70385C0.95047 6.52064 1.15035 6.38796 1.37586 6.32455L14.8716 2.23236H14.8822C15.0743 2.17838 15.2774 2.17648 15.4705 2.22688C15.6636 2.27727 15.8399 2.37814 15.9812 2.51913C16.1224 2.66012 16.2237 2.83615 16.2744 3.02918C16.3252 3.2222 16.3238 3.42526 16.2702 3.61752Z" fill="#171A1F"/>
</svg>
