<svg width="16" height="16" viewBox="0 0 16 16" fill="none" xmlns="http://www.w3.org/2000/svg">
<path d="M11.428 9.71387L11.428 12.571C11.428 12.8741 11.3076 13.1648 11.0933 13.3791C10.879 13.5935 10.5883 13.7139 10.2852 13.7139L3.42801 13.7139C3.12491 13.7139 2.83422 13.5935 2.61989 13.3791C2.40556 13.1648 2.28516 12.8741 2.28516 12.571L2.28516 6.85672C2.28516 6.55362 2.40556 6.26293 2.61989 6.0486C2.83422 5.83428 3.12491 5.71387 3.42801 5.71387L5.1423 5.71387" stroke="#323842" stroke-width="1.37143" stroke-miterlimit="10" stroke-linecap="square"/>
<path d="M6.28516 10.2856C6.28516 8.77005 6.8872 7.3166 7.95883 6.24496C9.03047 5.17333 10.4839 4.57129 11.9994 4.57129L13.7137 4.57129" stroke="#323842" stroke-width="1.37143" stroke-miterlimit="10"/>
<path d="M11.4277 6.85756L13.7134 4.57185L11.4277 2.28613" stroke="#323842" stroke-width="1.37143" stroke-miterlimit="10" stroke-linecap="square"/>
</svg>
