<svg width="16" height="16" viewBox="0 0 16 16" fill="none" xmlns="http://www.w3.org/2000/svg">
<path d="M14.9609 4.38117C14.9112 4.22603 14.8165 4.08915 14.6889 3.98789C14.5612 3.88664 14.4064 3.82556 14.244 3.81242L11.9178 3.61554L11.0103 1.49992C10.9462 1.3516 10.8402 1.22528 10.7052 1.13653C10.5702 1.04778 10.4121 1.00049 10.2506 1.00049C10.089 1.00049 9.93101 1.04778 9.79602 1.13653C9.66102 1.22528 9.55495 1.3516 9.4909 1.49992L8.5834 3.61617L6.25653 3.81242C6.09495 3.82539 5.94084 3.88593 5.81364 3.98639C5.68643 4.08685 5.59182 4.22274 5.54174 4.3769C5.49167 4.53107 5.48838 4.69661 5.53227 4.85264C5.57617 5.00868 5.66529 5.14822 5.7884 5.25367L7.5484 6.75367L7.02153 8.98679C6.98449 9.14332 6.99437 9.30729 7.04994 9.45823C7.10552 9.60918 7.20433 9.74041 7.33403 9.83554C7.46526 9.93191 7.62199 9.98746 7.78462 9.99524C7.94725 10.003 8.10857 9.96269 8.2484 9.87929L10.2484 8.69179L12.2484 9.87929C12.3882 9.96269 12.5496 10.003 12.7122 9.99524C12.8748 9.98746 13.0315 9.93191 13.1628 9.83554C13.2925 9.74046 13.3914 9.60924 13.447 9.45828C13.5026 9.30731 13.5124 9.14332 13.4753 8.98679L12.9484 6.75367L14.7078 5.25367C14.8316 5.14963 14.9218 5.01117 14.9668 4.85585C15.0119 4.70053 15.0098 4.53532 14.9609 4.38117ZM12.2197 6.06867C12.1045 6.16624 12.0186 6.29383 11.9716 6.43727C11.9246 6.5807 11.9183 6.73436 11.9534 6.88117L12.4103 8.81867L10.674 7.78679C10.5459 7.71039 10.3995 7.67006 10.2503 7.67006C10.1011 7.67006 9.95467 7.71039 9.82653 7.78679L8.09028 8.81242L8.54715 6.87492C8.58275 6.72818 8.57675 6.57443 8.52983 6.43091C8.48291 6.28739 8.39693 6.15979 8.28153 6.06242L6.76528 4.77367L8.7709 4.60367C8.91976 4.59118 9.0624 4.53839 9.18353 4.45096C9.30465 4.36353 9.39967 4.24477 9.4584 4.10742L10.2503 2.26492L11.0403 4.10742C11.0991 4.24469 11.1942 4.36338 11.3153 4.45079C11.4364 4.5382 11.579 4.59104 11.7278 4.60367L13.7334 4.77367L12.2197 6.06867ZM5.35403 7.85367L1.85403 11.3537C1.76021 11.4475 1.63296 11.5002 1.50028 11.5002C1.3676 11.5002 1.24035 11.4475 1.14653 11.3537C1.05271 11.2598 1 11.1326 1 10.9999C1 10.8672 1.05271 10.74 1.14653 10.6462L4.64653 7.14617C4.74035 7.05235 4.8676 6.99964 5.00028 6.99964C5.13296 6.99964 5.26021 7.05235 5.35403 7.14617C5.44785 7.23999 5.50056 7.36723 5.50056 7.49992C5.50056 7.6326 5.44785 7.75985 5.35403 7.85367ZM6.35403 11.3537L2.85403 14.8537C2.80757 14.9001 2.75242 14.937 2.69173 14.9621C2.63103 14.9873 2.56598 15.0002 2.50028 15.0002C2.43458 15.0002 2.36953 14.9873 2.30883 14.9621C2.24813 14.937 2.19298 14.9001 2.14653 14.8537C2.10007 14.8072 2.06322 14.7521 2.03808 14.6914C2.01294 14.6307 2 14.5656 2 14.4999C2 14.4342 2.01294 14.3692 2.03808 14.3085C2.06322 14.2478 2.10007 14.1926 2.14653 14.1462L5.64653 10.6462C5.74035 10.5523 5.8676 10.4996 6.00028 10.4996C6.13296 10.4996 6.26021 10.5523 6.35403 10.6462C6.44785 10.74 6.50056 10.8672 6.50056 10.9999C6.50056 11.1326 6.44785 11.2598 6.35403 11.3537ZM10.854 10.6462C10.9005 10.6926 10.9374 10.7477 10.9626 10.8084C10.9877 10.8691 11.0007 10.9342 11.0007 10.9999C11.0007 11.0656 10.9877 11.1307 10.9626 11.1914C10.9374 11.2521 10.9005 11.3072 10.854 11.3537L7.35403 14.8537C7.30757 14.9001 7.25242 14.937 7.19173 14.9621C7.13103 14.9873 7.06598 15.0002 7.00028 15.0002C6.93458 15.0002 6.86953 14.9873 6.80883 14.9621C6.74813 14.937 6.69298 14.9001 6.64653 14.8537C6.60007 14.8072 6.56322 14.7521 6.53808 14.6914C6.51294 14.6307 6.5 14.5656 6.5 14.4999C6.5 14.4342 6.51294 14.3692 6.53808 14.3085C6.56322 14.2478 6.60007 14.1926 6.64653 14.1462L10.1465 10.6462C10.193 10.5997 10.2481 10.5628 10.3088 10.5376C10.3695 10.5125 10.4346 10.4995 10.5003 10.4995C10.566 10.4995 10.631 10.5125 10.6917 10.5376C10.7524 10.5628 10.8076 10.5997 10.854 10.6462Z" fill="#2D66F5"/>
</svg>
