<svg width="24" height="24" viewBox="0 0 24 24" fill="none" xmlns="http://www.w3.org/2000/svg">
<path d="M11.9999 14.5711C12.9467 14.5711 13.7142 13.8036 13.7142 12.8569C13.7142 11.9101 12.9467 11.1426 11.9999 11.1426C11.0532 11.1426 10.2856 11.9101 10.2856 12.8569C10.2856 13.8036 11.0532 14.5711 11.9999 14.5711Z" fill="#9095A0"/>
<path d="M4.28582 14.5711C5.23259 14.5711 6.0001 13.8036 6.0001 12.8569C6.0001 11.9101 5.23259 11.1426 4.28582 11.1426C3.33905 11.1426 2.57153 11.9101 2.57153 12.8569C2.57153 13.8036 3.33905 14.5711 4.28582 14.5711Z" fill="#9095A0"/>
<path d="M19.7143 14.5711C20.6611 14.5711 21.4286 13.8036 21.4286 12.8569C21.4286 11.9101 20.6611 11.1426 19.7143 11.1426C18.7675 11.1426 18 11.9101 18 12.8569C18 13.8036 18.7675 14.5711 19.7143 14.5711Z" fill="#9095A0"/>
</svg>
