<svg width="29" height="28" viewBox="0 0 29 28" fill="none" xmlns="http://www.w3.org/2000/svg">
<path d="M14.5 17C15.6046 17 16.5 16.1046 16.5 15C16.5 13.8954 15.6046 13 14.5 13C13.3954 13 12.5 13.8954 12.5 15C12.5 16.1046 13.3954 17 14.5 17Z" fill="#5E5D5A"/>
<path d="M5.5 17C6.60457 17 7.5 16.1046 7.5 15C7.5 13.8954 6.60457 13 5.5 13C4.39543 13 3.5 13.8954 3.5 15C3.5 16.1046 4.39543 17 5.5 17Z" fill="#5E5D5A"/>
<path d="M23.5 17C24.6046 17 25.5 16.1046 25.5 15C25.5 13.8954 24.6046 13 23.5 13C22.3954 13 21.5 13.8954 21.5 15C21.5 16.1046 22.3954 17 23.5 17Z" fill="#5E5D5A"/>
</svg>
