<svg width="16" height="16" viewBox="0 0 16 16" fill="none" xmlns="http://www.w3.org/2000/svg">
<path d="M1.9278 8.67614C1.78919 8.47797 1.71484 8.24198 1.71484 8.00014C1.71484 7.7583 1.78919 7.52231 1.9278 7.32414C2.82665 6.05157 5.0398 3.42871 8.00037 3.42871C10.9609 3.42871 13.1741 6.05157 14.0729 7.32414C14.2116 7.52231 14.2859 7.7583 14.2859 8.00014C14.2859 8.24198 14.2116 8.47797 14.0729 8.67614C13.1741 9.94871 10.9609 12.5716 8.00037 12.5716C5.0398 12.5716 2.82665 9.94871 1.9278 8.67614Z" stroke="#323842" stroke-width="1.37143" stroke-miterlimit="10" stroke-linecap="square"/>
<path d="M8.00056 10.2858C9.26292 10.2858 10.2863 9.26244 10.2863 8.00007C10.2863 6.7377 9.26292 5.71436 8.00056 5.71436C6.73819 5.71436 5.71484 6.7377 5.71484 8.00007C5.71484 9.26244 6.73819 10.2858 8.00056 10.2858Z" stroke="#323842" stroke-width="1.37143" stroke-miterlimit="10" stroke-linecap="square"/>
</svg>
