<svg width="22" height="23" viewBox="0 0 22 23" fill="none" xmlns="http://www.w3.org/2000/svg">
<g clipPath="url(#clip0_242_1283)">
<path d="M5.49967 14.1895C6.50801 14.1895 7.33301 15.0145 7.33301 16.0228C7.33301 17.0311 6.50801 17.8561 5.49967 17.8561C4.49134 17.8561 3.66634 17.0311 3.66634 16.0228C3.66634 15.0145 4.49134 14.1895 5.49967 14.1895ZM5.49967 12.3561C3.48301 12.3561 1.83301 14.0061 1.83301 16.0228C1.83301 18.0395 3.48301 19.6895 5.49967 19.6895C7.51634 19.6895 9.16634 18.0395 9.16634 16.0228C9.16634 14.0061 7.51634 12.3561 5.49967 12.3561ZM10.9997 5.02279C12.008 5.02279 12.833 5.84779 12.833 6.85612C12.833 7.86445 12.008 8.68945 10.9997 8.68945C9.99134 8.68945 9.16634 7.86445 9.16634 6.85612C9.16634 5.84779 9.99134 5.02279 10.9997 5.02279ZM10.9997 3.18945C8.98301 3.18945 7.33301 4.83945 7.33301 6.85612C7.33301 8.87279 8.98301 10.5228 10.9997 10.5228C13.0163 10.5228 14.6663 8.87279 14.6663 6.85612C14.6663 4.83945 13.0163 3.18945 10.9997 3.18945ZM16.4997 14.1895C17.508 14.1895 18.333 15.0145 18.333 16.0228C18.333 17.0311 17.508 17.8561 16.4997 17.8561C15.4913 17.8561 14.6663 17.0311 14.6663 16.0228C14.6663 15.0145 15.4913 14.1895 16.4997 14.1895ZM16.4997 12.3561C14.483 12.3561 12.833 14.0061 12.833 16.0228C12.833 18.0395 14.483 19.6895 16.4997 19.6895C18.5163 19.6895 20.1663 18.0395 20.1663 16.0228C20.1663 14.0061 18.5163 12.3561 16.4997 12.3561Z" fill="#2D66F5"/>
</g>
<defs>
<clipPath id="clip0_242_1283">
<rect width="22" height="22" fill="white" transform="translate(0 0.439453)"/>
</clipPath>
</defs>
</svg>
