<svg width="22" height="22" viewBox="0 0 22 22" fill="none" xmlns="http://www.w3.org/2000/svg">
<path d="M21.263 8.7208C21.2039 8.54594 21.041 8.42851 20.8567 8.42851L13.7596 8.42851L11.4085 1.01337C11.2953 0.657653 10.7047 0.657653 10.5916 1.01337L8.2396 8.42851L1.14246 8.42851C0.958173 8.42851 0.795316 8.54594 0.736173 8.7208C0.677887 8.89565 0.736173 9.08765 0.883602 9.19908L6.53903 13.4848L4.18617 20.7251C4.12874 20.9017 4.19132 21.0954 4.34217 21.2042C4.49303 21.3139 4.69532 21.3139 4.84617 21.2042L11.0005 16.7342L17.1547 21.2042C17.2302 21.2591 17.3185 21.2865 17.4067 21.2865C17.495 21.2865 17.5833 21.2591 17.6587 21.2042C17.8087 21.0954 17.8722 20.9017 17.8147 20.7251L15.4619 13.4848L21.1173 9.19908C21.2639 9.08765 21.323 8.89565 21.2647 8.7208H21.263Z" fill="#EFB034"/>
</svg>
