<svg width="16" height="16" viewBox="0 0 16 16" fill="none" xmlns="http://www.w3.org/2000/svg">
<path d="M14.2857 4L14.2857 10.2857C14.2857 10.5888 14.1653 10.8795 13.951 11.0938C13.7367 11.3082 13.446 11.4286 13.1429 11.4286L12 11.4286V13.7143L8.57143 11.4286H8" stroke="black" stroke-width="1.37143" stroke-miterlimit="10" stroke-linecap="square"/>
<path d="M10.8572 2.28613L2.85721 2.28613C2.55411 2.28613 2.26342 2.40654 2.04909 2.62087C1.83476 2.8352 1.71436 3.12589 1.71436 3.42899L1.71436 8.00042C1.71436 8.30352 1.83476 8.59421 2.04909 8.80854C2.26342 9.02287 2.55411 9.14328 2.85721 9.14328H4.00007L4.00007 12.0004L8.00007 9.14328H10.8572C11.1603 9.14328 11.451 9.02287 11.6653 8.80854C11.8797 8.59421 12.0001 8.30352 12.0001 8.00042L12.0001 3.42899C12.0001 3.12589 11.8797 2.8352 11.6653 2.62087C11.451 2.40654 11.1603 2.28613 10.8572 2.28613Z" stroke="black" stroke-width="1.37143" stroke-miterlimit="10" stroke-linecap="square"/>
</svg>
